<?xml version="1.0" encoding="UTF-8" standalone="no"?>
<!-- Created with Inkscape (http://www.inkscape.org/) -->

<svg
   width="10"
   height="10"
   viewBox="0 0 10 10"
   version="1.1"
   id="svg1"
   inkscape:version="1.4 (86a8ad7, 2024-10-11)"
   sodipodi:docname="level1.svg"
   xmlns:inkscape="http://www.inkscape.org/namespaces/inkscape"
   xmlns:sodipodi="http://sodipodi.sourceforge.net/DTD/sodipodi-0.dtd"
   xmlns="http://www.w3.org/2000/svg"
   xmlns:svg="http://www.w3.org/2000/svg">
  <sodipodi:namedview
     id="namedview1"
     pagecolor="#3a3a3a"
     bordercolor="#999999"
     borderopacity="1"
     inkscape:showpageshadow="false"
     inkscape:pageopacity="0"
     inkscape:pagecheckerboard="0"
     inkscape:deskcolor="#3a3a3a"
     inkscape:document-units="px"
     inkscape:zoom="0.50000001"
     inkscape:cx="-863.99998"
     inkscape:cy="175"
     inkscape:window-width="1920"
     inkscape:window-height="1009"
     inkscape:window-x="-8"
     inkscape:window-y="-8"
     inkscape:window-maximized="1"
     inkscape:current-layer="transportLayer"
     showborder="false"
     showgrid="true"
     showguides="false">
    <inkscape:grid
       id="grid1"
       units="px"
       originx="0"
       originy="0"
       spacingx="5"
       spacingy="5"
       empcolor="#0099e5"
       empopacity="0.10196078"
       color="#0099e5"
       opacity="0.10196078"
       empspacing="1"
       enabled="true"
       visible="true" />
  </sodipodi:namedview>
  <defs
     id="defs1">
    <marker
       style="overflow:visible"
       id="ArrowWide-3"
       refX="0"
       refY="0"
       orient="auto-start-reverse"
       inkscape:stockid="Wide arrow"
       markerWidth="1"
       markerHeight="1"
       viewBox="0 0 1 1"
       inkscape:isstock="true"
       inkscape:collect="always"
       preserveAspectRatio="xMidYMid">
      <path
         style="fill:none;stroke:context-stroke;stroke-width:1;stroke-linecap:butt"
         d="M 3,-3 0,0 3,3"
         transform="rotate(180,0.125,0)"
         sodipodi:nodetypes="ccc"
         id="path1-6" />
    </marker>
    <marker
       style="overflow:visible"
       id="ArrowWide-4-1"
       refX="0"
       refY="0"
       orient="auto-start-reverse"
       inkscape:stockid="Wide arrow"
       markerWidth="1"
       markerHeight="1"
       viewBox="0 0 1 1"
       inkscape:isstock="true"
       inkscape:collect="always"
       preserveAspectRatio="xMidYMid">
      <path
         style="fill:none;stroke:context-stroke;stroke-width:1;stroke-linecap:butt"
         d="M 3,-3 0,0 3,3"
         transform="rotate(180,0.125,0)"
         sodipodi:nodetypes="ccc"
         id="path1-8-5" />
    </marker>
    <marker
       style="overflow:visible"
       id="ArrowWide-3-7"
       refX="0"
       refY="0"
       orient="auto-start-reverse"
       inkscape:stockid="Wide arrow"
       markerWidth="1"
       markerHeight="1"
       viewBox="0 0 1 1"
       inkscape:isstock="true"
       inkscape:collect="always"
       preserveAspectRatio="xMidYMid">
      <path
         style="fill:none;stroke:context-stroke;stroke-width:1;stroke-linecap:butt"
         d="M 3,-3 0,0 3,3"
         transform="rotate(180,0.125,0)"
         sodipodi:nodetypes="ccc"
         id="path1-6-1" />
    </marker>
    <marker
       style="overflow:visible"
       id="ArrowWide-4-1-3"
       refX="0"
       refY="0"
       orient="auto-start-reverse"
       inkscape:stockid="Wide arrow"
       markerWidth="1"
       markerHeight="1"
       viewBox="0 0 1 1"
       inkscape:isstock="true"
       inkscape:collect="always"
       preserveAspectRatio="xMidYMid">
      <path
         style="fill:none;stroke:context-stroke;stroke-width:1;stroke-linecap:butt"
         d="M 3,-3 0,0 3,3"
         transform="rotate(180,0.125,0)"
         sodipodi:nodetypes="ccc"
         id="path1-8-5-1" />
    </marker>
    <marker
       style="overflow:visible"
       id="ArrowWide-4-1-3-8"
       refX="0"
       refY="0"
       orient="auto-start-reverse"
       inkscape:stockid="Wide arrow"
       markerWidth="1"
       markerHeight="1"
       viewBox="0 0 1 1"
       inkscape:isstock="true"
       inkscape:collect="always"
       preserveAspectRatio="xMidYMid">
      <path
         style="fill:none;stroke:context-stroke;stroke-width:1;stroke-linecap:butt"
         d="M 3,-3 0,0 3,3"
         transform="rotate(180,0.125,0)"
         sodipodi:nodetypes="ccc"
         id="path1-8-5-1-6" />
    </marker>
    <marker
       style="overflow:visible"
       id="ArrowWide-3-76"
       refX="0"
       refY="0"
       orient="auto-start-reverse"
       inkscape:stockid="Wide arrow"
       markerWidth="1"
       markerHeight="1"
       viewBox="0 0 1 1"
       inkscape:isstock="true"
       inkscape:collect="always"
       preserveAspectRatio="xMidYMid">
      <path
         style="fill:none;stroke:context-stroke;stroke-width:1;stroke-linecap:butt"
         d="M 3,-3 0,0 3,3"
         transform="rotate(180,0.125,0)"
         sodipodi:nodetypes="ccc"
         id="path1-6-36" />
    </marker>
    <marker
       style="overflow:visible"
       id="ArrowWide-3-76-7"
       refX="0"
       refY="0"
       orient="auto-start-reverse"
       inkscape:stockid="Wide arrow"
       markerWidth="1"
       markerHeight="1"
       viewBox="0 0 1 1"
       inkscape:isstock="true"
       inkscape:collect="always"
       preserveAspectRatio="xMidYMid">
      <path
         style="fill:none;stroke:context-stroke;stroke-width:1;stroke-linecap:butt"
         d="M 3,-3 0,0 3,3"
         transform="rotate(180,0.125,0)"
         sodipodi:nodetypes="ccc"
         id="path1-6-36-2" />
    </marker>
  </defs>
  <g
     inkscape:groupmode="layer"
     id="boundaryLayer"
     inkscape:highlight-color="#3e67e3"
     sodipodi:insensitive="true">
    <path
       id="boundary5"
       style="fill:#000000;fill-opacity:1;stroke-width:5.969;stroke-linejoin:round"
       d="m -79.049329,207.97375 7.026257,-31.49608 32.107414,-9.3928 9.057759,-36.18403 29.7826718,-4.22926 34.4287552,26.37989 2.971095,111.3438 -44.4760919,142.29449 -1.11314,76.06826 -73.8351201,134.01258 -226.007501,52.87627 17.03407,-40.77543 0.79244,-38.69818 -14.33436,-23.90865 -22.1018,-18.31983 -27.11164,-6.52027 19.04559,-23.96922 19.052,-27.38364 35.73093,-41.05258 -4.69798,-42.19341 -29.23746,-32.48528 -0.87222,-10.54407 12.0982,-8.2923 31.00049,-8.99276 82.32495,-37.5156 L -137.04157,251 Z"
       sodipodi:nodetypes="ccccccccccccccccccccccccccc"
       role="boundary" />
    <path
       id="boundary4"
       style="fill:#000000;fill-opacity:1;stroke-width:5.969;stroke-linejoin:round"
       d="m -397.7209,-15.298328 77.17418,-6.614545 49.24181,8.350983 1.268,26.801568 -33.36257,39.031007 -4.50204,33.891611 -1.82355,27.350834 -72.14615,83.85863 -36.65492,50.64862 -45.1141,32.00369 -68.14153,32.7665 -84.56675,10.8944 -15.27752,18.96955 -25.68521,44.03166 -1.53786,51.37782 -45.49713,36.94459 -44.50696,-6.73012 -25.29866,-40.50948 -17.46433,-62.17113 13.07239,-87.03068 20.2158,-70.3572 43.07281,-68.55298 51.58575,-24.79547 91.43513,-62.255713 107.68054,-30.69413 z"
       sodipodi:nodetypes="cccccccccccccccccccccccccc"
       role="boundary" />
    <path
       id="boundary3"
       style="fill:#000000;fill-opacity:1;stroke-width:5.969;stroke-linejoin:round"
       d="m -334.05812,553.74587 19.19143,17.42709 10.45891,15.82286 2.74752,21.46606 -3.11314,20.06826 -12.83512,33.01258 -31.5075,16.37627 -20.67349,-4.97361 -19.5478,-16.24875 -11.17148,-44.90544 3.47483,-27.54078 14.8162,-21.96704 10.82495,-8.5156 14.34245,-0.99565 z"
       sodipodi:nodetypes="ccccccccccccccc"
       role="boundary" />
    <path
       id="boundary2"
       style="fill:#000000;fill-opacity:1;stroke-width:5.969;stroke-linejoin:round"
       d="m -404.56166,254.61234 19.78726,-32.55083 19.96192,50.28737 13.71622,12.68848 14.7241,9.64333 17.9497,16.54573 13.08807,9.47955 20.72641,18.48437 -47.73152,23.8139 14.41887,19.03117 16.92219,26.84394 -1.22919,35.25697 -34.86868,59.25977 -36.50674,42.6818 -19.35768,16.5122 -12.5319,17.81349 -5.47304,33.89371 18.17487,51.46421 -2.53728,10.60881 -12.38775,1.33891 -93.00964,-36.2378 -52.42395,-38.86906 -27.01296,-18.75987 -34.95012,-11.73437 -26.92982,-5.16055 -30.07351,7.20221 -39.47848,7.77457 -39.54632,-30.14132 7.81835,-40.9004 50.00112,-20.32349 49.52246,-35.58304 -4.57771,-70.92242 35.20182,-45.9921 61.95765,-12.12491 71.2686,-22.43306 54.55196,-34.18642 z"
       sodipodi:nodetypes="ccccccccccccccccccccccccccccccccccccc"
       role="boundary" />
    <path
       id="boundary1"
       style="fill:#000000;fill-opacity:1;stroke-width:5.969;stroke-linejoin:round"
       d="M -0.171128,-27.537706 11.075751,-6.5233048 25.793807,0.1454836 27.664052,18.671366 24.174917,42.349103 10.190413,78.3364 l -21.922552,18.36038 -1.733955,22.54884 -23.414596,6.60091 -6.079778,21.32002 -17.487358,15.42342 -20.717385,3.80251 -3.879735,31.57776 -25.229704,13.45715 -35.04451,29.66597 -32.54079,42.55858 -30.16171,21.82025 -62.31322,27.48841 -47.44795,-32.6763 -12.12544,-13.00464 -20.99136,-17.11837 -10.5862,-18.45832 -15.99974,-41.8985 40.12839,-37.69946 29.36991,-42.44822 14.3247,45.44357 29.59466,5.52072 -3.96698,30.80207 32.61345,4.93906 30.86246,-0.92731 36.90724,-1.56783 19.8912,-20.07042 3.76994,-16.44804 -3.19974,-17.24269 -7.26957,-18.24292 -6.55267,-18.94818 -4.74559,-16.78237 -5.48457,-18.55737 -3.44845,-10.528981 -14.65646,-4.887137 -11.99357,2.761253 19.93511,31.989565 -26.49472,17.50224 27.96071,10.89473 -12.33639,29.32723 24.14079,-9.74199 -4.25542,24.23556 -9.31401,18.96838 -16.36183,-4.21703 -14.67499,9.03434 -43.69699,-3.53401 14.97154,-32.68247 -37.20761,0.7086 -14.657,-46.48638 -0.91353,-59.874035 40.2507,-47.797863 60.88216,-31.689594 52.92543,11.7929845 10.2466,3.6146913 16.04649,18.4323232 16.824868,0.601715 17.150937,14.411058 0.478019,13.949672 -11.322066,20.578195 -20.467808,7.230624 -1.72911,11.779305 11.79065,1.493889 9.547006,-7.152157 10.537979,-12.24306 9.82744,-11.517082 1.9937,-21.73079 -5.842465,-19.994665 -35.80215,-10.360914 -14.46082,-21.728763 13.63473,-19.81228 15.868074,-9.823788 27.187465,5.412762 24.367873,-1.033613 21.881516,11.645898 z"
       sodipodi:nodetypes="cccccccccccccccccccccccccccccccccccccccccccccccccccccccccccccccccccccccccccccccc"
       role="boundary" />
  </g>
  <g
     inkscape:groupmode="layer"
     id="starLayer"
     inkscape:highlight-color="#ffff00">
    <path
       id="star1"
       style="fill:#ffff00;stroke-width:0.908675;stroke-linejoin:round"
       d="m -6.5066334,36.640975 -3.1129936,-2.050315 -3.067352,2.124457 0.899465,-3.735024 -2.876606,-2.399477 3.668886,-0.258085 1.289516,-3.607415 1.368033,3.575534 3.6735646,0.17001 -2.8233906,2.467863 z"
       role="star"
       sodipodi:nodetypes="ccccccccccc" />
    <path
       id="star2"
       style="fill:#ffff00;stroke-width:0.908675;stroke-linejoin:round"
       d="m -180.74623,193.27376 -3.113,-2.05031 -3.06735,2.12445 0.89946,-3.73502 -2.8766,-2.39948 3.66888,-0.25808 1.28952,-3.60742 1.36804,3.57554 3.67356,0.17001 -2.82339,2.46786 z"
       role="star"
       sodipodi:nodetypes="ccccccccccc" />
    <path
       id="star2-0"
       style="fill:#ffff00;stroke-width:0.908675;stroke-linejoin:round"
       d="m -377.00367,609.26469 -3.113,-2.05031 -3.06735,2.12445 0.89946,-3.73502 -2.8766,-2.39948 3.66888,-0.25808 1.28952,-3.60742 1.36804,3.57554 3.67356,0.17001 -2.82339,2.46786 z"
       role="star"
       sodipodi:nodetypes="ccccccccccc" />
  </g>
  <g
     inkscape:groupmode="layer"
     id="transportLayer"
     inkscape:highlight-color="#ffff00">
    <circle
       style="fill:#f4ff06;fill-opacity:0.0421246;stroke:#ffff00;stroke-width:1;stroke-linejoin:round;stroke-dasharray:none;stroke-opacity:1"
       id="transporter0"
       cx="-343.25604"
       cy="323.00073"
       role="transporter"
       r="20"
       exit="false" />
    <circle
       style="fill:#f4ff06;fill-opacity:0.0421246;stroke:#ffff00;stroke-width:1;stroke-linejoin:round;stroke-dasharray:none;stroke-opacity:1"
       id="transporter1"
       cx="-333.19547"
       cy="239.69064"
       role="transporter"
       r="20"
       exit="false" />
    <circle
       style="fill:#f4ff06;fill-opacity:0.0421246;stroke:#ffff00;stroke-width:1;stroke-linejoin:round;stroke-dasharray:none;stroke-opacity:1"
       id="transporter2"
       cx="-429.34314"
       cy="572.35358"
       role="transporter"
       r="20"
       exit="false" />
    <circle
       style="fill:#f4ff06;fill-opacity:0.0421246;stroke:#ffff00;stroke-width:1;stroke-linejoin:round;stroke-dasharray:none;stroke-opacity:1"
       id="transporter3"
       cx="-368.6066"
       cy="637.25739"
       role="transporter"
       r="20"
       exit="false" />
    <circle
       style="fill:#f4ff06;fill-opacity:0.0421246;stroke:#ffff00;stroke-width:1;stroke-linejoin:round;stroke-dasharray:none;stroke-opacity:1"
       id="transporter4"
       cx="-77.956192"
       cy="112.44826"
       role="transporter"
       r="20"
       exit="true"
       targetEntrance="0"
       targetLevel="2" />
  </g>
  <g
     inkscape:groupmode="layer"
     id="doorLayer"
     inkscape:highlight-color="#aa6d00">
    <path
       id="door1"
       style="fill:#322000;fill-opacity:1;stroke-width:0.1;stroke-linejoin:round"
       d="m -75.881665,58.483229 18.843479,-6.482216 16.186063,5.567054 10.643395,-1.535403 13.431667,8.442443 2.953088,16.589095 8.7216993,19.337648 -12.3126433,13.09873 -23.955723,-16.16229 -16.401859,1.308384 -7.894605,-18.127233 -13.966938,-4.656026 z"
       sodipodi:nodetypes="ccccccccccccc"
       role="door" />
    <path
       id="door2"
       style="fill:#322000;fill-opacity:1;stroke-width:0.1;stroke-linejoin:round"
       d="m -172.19409,213.16668 0.88072,-6.29872 4.97887,-5.40789 5.82703,-2.28574 3.10142,-3.76566 5.3823,0.23777 5.83414,-0.70658 3.49339,3.93222 5.34731,2.09439 5.68576,4.31252 0.87024,4.77654 1.22944,5.57303 2.06015,6.05354 -0.88627,7.68943 -1.48758,6.77201 -2.81878,1.7354 -2.54138,0.94298 -2.59477,2.71247 -4.43005,2.1037 -4.18933,0.8291 -5.21721,0.0641 -5.33216,0.8822 -5.30454,-0.0383 -2.74263,-2.92678 -1.59732,-2.78064 -3.32659,-1.78203 -4.17261,-3.87522 -1.3736,-7.19628 1.2507,-7.40429 z"
       sodipodi:nodetypes="cccccccccccccccccccccccccccccc"
       role="door" />
    <path
       id="door2-0"
       style="fill:#322000;fill-opacity:1;stroke-width:0.1;stroke-linejoin:round"
       d="m -669.56213,466.69212 38.52361,107.04578 -26.27728,-1.17373 -33.34883,-96.73614 z"
       sodipodi:nodetypes="ccccc"
       role="door" />
  </g>
  <g
     inkscape:groupmode="layer"
     id="rockLayer"
     inkscape:highlight-color="#8a8a8a">
    <circle
       style="fill:#808080;fill-opacity:1;stroke-width:3.77953;stroke-linejoin:round;stroke-dasharray:7.55906, 7.55906"
       id="rock1-3"
       cx="-438"
       cy="167"
       role="rock"
       r="3" />
    <circle
       style="fill:#808080;fill-opacity:1;stroke-width:3.77953;stroke-linejoin:round;stroke-dasharray:7.55906, 7.55906"
       id="rock5-7-9-6"
       cx="-83"
       cy="430"
       role="rock"
       r="5" />
    <circle
       style="fill:#808080;fill-opacity:1;stroke-width:3.77953;stroke-linejoin:round;stroke-dasharray:7.55906, 7.55906"
       id="rock5-7-9-2"
       cx="-677"
       cy="288"
       role="rock"
       r="5" />
    <circle
       style="fill:#808080;fill-opacity:1;stroke-width:3.77953;stroke-linejoin:round;stroke-dasharray:7.55906, 7.55906"
       id="rock5-7-9-1"
       cx="-161"
       cy="392"
       role="rock"
       r="5" />
    <circle
       style="fill:#808080;fill-opacity:1;stroke-width:3.77953;stroke-linejoin:round;stroke-dasharray:7.55906, 7.55906"
       id="rock5-7-9-5"
       cx="-570"
       cy="141"
       role="rock"
       r="5" />
    <circle
       style="fill:#808080;fill-opacity:1;stroke-width:3.77953;stroke-linejoin:round;stroke-dasharray:7.55906, 7.55906"
       id="rock5-7-9-9"
       cx="-372"
       cy="123"
       role="rock"
       r="5" />
    <circle
       style="fill:#808080;fill-opacity:1;stroke-width:3.77953;stroke-linejoin:round;stroke-dasharray:7.55906, 7.55906"
       id="rock5-7-9-7"
       cx="-475"
       cy="215"
       role="rock"
       r="5" />
    <circle
       style="fill:#808080;fill-opacity:1;stroke-width:3.77953;stroke-linejoin:round;stroke-dasharray:7.55906, 7.55906"
       id="rock5-7-9-74"
       cx="-18.999996"
       cy="263"
       role="rock"
       r="5" />
    <circle
       style="fill:#808080;fill-opacity:1;stroke-width:3.77953;stroke-linejoin:round;stroke-dasharray:7.55906, 7.55906"
       id="rock5-7-9-93"
       cx="-210"
       cy="562"
       role="rock"
       r="5" />
    <circle
       style="fill:#808080;fill-opacity:1;stroke-width:3.77953;stroke-linejoin:round;stroke-dasharray:7.55906, 7.55906"
       id="rock1-6"
       cx="-122"
       cy="339"
       role="rock"
       r="3" />
    <circle
       style="fill:#808080;fill-opacity:1;stroke-width:3.77953;stroke-linejoin:round;stroke-dasharray:7.55906, 7.55906"
       id="rock1-9"
       cx="-212"
       cy="453"
       role="rock"
       r="3" />
    <circle
       style="fill:#808080;fill-opacity:1;stroke-width:3.77953;stroke-linejoin:round;stroke-dasharray:7.55906, 7.55906"
       id="rock1-60"
       cx="-111"
       cy="523"
       role="rock"
       r="3" />
    <circle
       style="fill:#808080;fill-opacity:1;stroke-width:3.77953;stroke-linejoin:round;stroke-dasharray:7.55906, 7.55906"
       id="rock1-8"
       cx="-576"
       cy="243"
       role="rock"
       r="3" />
    <circle
       style="fill:#808080;fill-opacity:1;stroke-width:3.77953;stroke-linejoin:round;stroke-dasharray:7.55906, 7.55906"
       id="rock5-7-9-1-5"
       cx="-396"
       cy="427"
       role="rock"
       r="5" />
    <circle
       style="fill:#808080;fill-opacity:1;stroke-width:3.77953;stroke-linejoin:round;stroke-dasharray:7.55906, 7.55906"
       id="rock5-7-9-1-1"
       cx="-591"
       cy="413"
       role="rock"
       r="5" />
  </g>
  <g
     inkscape:groupmode="layer"
     id="bladeLayer"
     inkscape:highlight-color="#29ffff">
    <circle
       style="fill:#00d4ff;fill-opacity:1;stroke-width:3.77953;stroke-linejoin:round;stroke-dasharray:7.55906, 7.55906"
       id="playerBlade1"
       cx="-94.5"
       cy="154.5"
       role="blade"
       r="10"
       align="0" />
    <circle
       style="fill:#00bfe5;fill-opacity:1;stroke-width:3.77953;stroke-linejoin:round;stroke-dasharray:7.55906, 7.55906"
       id="playerBlade1-1"
       cx="-462.80545"
       cy="618.07916"
       role="blade"
       r="10"
       align="0" />
  </g>
  <g
     inkscape:groupmode="layer"
     id="agentLayer">
    <circle
       style="fill:#cc0000;fill-opacity:1;stroke-width:3.77953;stroke-linejoin:round;stroke-dasharray:7.55906, 7.55906"
       id="monster1"
       cx="-242.50745"
       cy="100.54884"
       role="monster"
       r="10" />
    <circle
       style="fill:#009900;fill-opacity:1;stroke-width:3.77953;stroke-linejoin:round;stroke-dasharray:7.55906, 7.55906"
       id="rover7"
       cx="-531"
       cy="287"
       role="rover"
       r="5" />
    <circle
       style="fill:#009900;fill-opacity:1;stroke-width:3.77953;stroke-linejoin:round;stroke-dasharray:7.55906, 7.55906"
       id="rover6"
       cx="-463"
       cy="150"
       role="rover"
       r="5" />
    <circle
       style="fill:#009900;fill-opacity:1;stroke-width:3.77953;stroke-linejoin:round;stroke-dasharray:7.55906, 7.55906"
       id="rover5"
       cx="-83"
       cy="394"
       role="rover"
       r="5" />
    <circle
       style="fill:#009900;fill-opacity:1;stroke-width:3.77953;stroke-linejoin:round;stroke-dasharray:7.55906, 7.55906"
       id="rover4"
       cx="-191"
       cy="379"
       role="rover"
       r="5" />
    <circle
       style="fill:#009900;fill-opacity:1;stroke-width:3.77953;stroke-linejoin:round;stroke-dasharray:7.55906, 7.55906"
       id="rover2"
       cx="-94.884041"
       cy="-26.769552"
       role="rover"
       r="5" />
    <circle
       style="fill:#009900;fill-opacity:1;stroke-width:3.77953;stroke-linejoin:round;stroke-dasharray:7.55906, 7.55906"
       id="rover1"
       cx="-41.66827"
       cy="-4.504425"
       role="rover"
       r="5" />
    <circle
       style="fill:#0053ff;fill-opacity:1;stroke-width:3.77953;stroke-linejoin:round;stroke-dasharray:7.55906, 7.55906"
       id="player"
       cx="-36.79443"
       cy="24.018797"
       role="player"
       r="5" />
    <circle
       style="fill:#cc0000;fill-opacity:1;stroke-width:3.77953;stroke-linejoin:round;stroke-dasharray:7.55906, 7.55906"
       id="monster1-8"
       cx="-486.85788"
       cy="423.02945"
       role="monster"
       r="10" />
  </g>
  <g
     inkscape:groupmode="layer"
     id="arrowLayer"
     inkscape:highlight-color="#ffffff">
    <path
       style="fill:none;fill-opacity:0.119048;stroke:#ffffff;stroke-width:1;stroke-linejoin:round;stroke-dasharray:none;stroke-opacity:1;marker-end:url(#ArrowWide-3-7)"
       d="m -336.08969,318.01392 41.09825,-29.44402"
       id="arrow3"
       sodipodi:nodetypes="cc"
       role="arrow" />
    <path
       style="fill:none;fill-opacity:0.119048;stroke:#ffffff;stroke-width:1;stroke-linejoin:round;stroke-dasharray:none;stroke-opacity:1;marker-end:url(#ArrowWide-3)"
       d="m -341.98027,244.24324 -41.88919,31.2787"
       id="arrow2"
       sodipodi:nodetypes="cc"
       role="arrow" />
    <path
       style="fill:none;fill-opacity:0.119048;stroke:#ffffff;stroke-width:1;stroke-linejoin:round;stroke-dasharray:none;stroke-opacity:1;marker-end:url(#ArrowWide-4-1-3-8)"
       d="m -658.13692,528.83296 55.06299,-55.12215"
       id="arrow4-9"
       sodipodi:nodetypes="cc"
       role="arrow" />
    <path
       style="fill:none;fill-opacity:0.119048;stroke:#ffffff;stroke-width:1;stroke-linejoin:round;stroke-dasharray:none;stroke-opacity:1;marker-end:url(#ArrowWide-3-76)"
       d="m -428.39416,572.6684 51.16106,10.01093"
       id="arrow2-5"
       sodipodi:nodetypes="cc"
       role="arrow" />
    <path
       style="fill:none;fill-opacity:0.119048;stroke:#ffffff;stroke-width:1;stroke-linejoin:round;stroke-dasharray:none;stroke-opacity:1;marker-end:url(#ArrowWide-3-76-7)"
       d="m -369.45727,636.9699 -55.793,2.28911"
       id="arrow2-5-0"
       sodipodi:nodetypes="cc"
       role="arrow" />
    <path
       style="fill:none;fill-opacity:0.119048;stroke:#ffffff;stroke-width:1;stroke-linejoin:round;stroke-dasharray:none;stroke-opacity:1;marker-end:url(#ArrowWide-4-1-3)"
       d="m -157.46267,203.25936 13.65183,33.24717"
       id="arrow4"
       sodipodi:nodetypes="cc"
       role="arrow" />
    <path
       style="fill:none;fill-opacity:0.119048;stroke:#ffffff;stroke-width:1;stroke-linejoin:round;stroke-dasharray:none;stroke-opacity:1;marker-end:url(#ArrowWide-4-1)"
       d="M -12.61731,101.71805 -66.197714,61.74555"
       id="arrow1"
       sodipodi:nodetypes="cc"
       role="arrow" />
  </g>
  <g
     inkscape:groupmode="layer"
     id="entranceLayer"
     inkscape:highlight-color="#227eff"
     style="fill:none">
    <circle
       style="fill:none;fill-opacity:0.0421246;stroke:#003b7a;stroke-width:3;stroke-linejoin:round;stroke-dasharray:none;stroke-opacity:1"
       id="entrance0"
       cx="-36.739277"
       cy="24.173635"
       r="8.9375"
       role="entrance" />
    <circle
       style="fill:none;fill-opacity:0.0421246;stroke:#003b7a;stroke-width:3;stroke-linejoin:round;stroke-dasharray:none;stroke-opacity:1"
       id="entrance1"
       cx="-10.340674"
       cy="152.15323"
       r="8.9375"
       role="entrance" />
  </g>
</svg>
