<?xml version="1.0" encoding="UTF-8" standalone="no"?>
<!-- Created with Inkscape (http://www.inkscape.org/) -->

<svg
   width="10"
   height="10"
   viewBox="0 0 10 10"
   version="1.1"
   id="svg1"
   inkscape:version="1.4 (86a8ad7, 2024-10-11)"
   sodipodi:docname="start.svg"
   xmlns:inkscape="http://www.inkscape.org/namespaces/inkscape"
   xmlns:sodipodi="http://sodipodi.sourceforge.net/DTD/sodipodi-0.dtd"
   xmlns="http://www.w3.org/2000/svg"
   xmlns:svg="http://www.w3.org/2000/svg">
  <sodipodi:namedview
     id="namedview1"
     pagecolor="#3a3a3a"
     bordercolor="#999999"
     borderopacity="1"
     inkscape:showpageshadow="false"
     inkscape:pageopacity="0"
     inkscape:pagecheckerboard="0"
     inkscape:deskcolor="#3a3a3a"
     inkscape:document-units="px"
     inkscape:zoom="11.313708"
     inkscape:cx="-410.3871"
     inkscape:cy="389.30648"
     inkscape:window-width="1920"
     inkscape:window-height="1009"
     inkscape:window-x="-8"
     inkscape:window-y="-8"
     inkscape:window-maximized="1"
     inkscape:current-layer="layer1"
     showborder="false"
     showgrid="true"
     showguides="false">
    <inkscape:grid
       id="grid1"
       units="px"
       originx="0"
       originy="0"
       spacingx="5"
       spacingy="5"
       empcolor="#0099e5"
       empopacity="0.10196078"
       color="#0099e5"
       opacity="0.10196078"
       empspacing="1"
       enabled="true"
       visible="true" />
  </sodipodi:namedview>
  <defs
     id="defs1">
    <marker
       style="overflow:visible"
       id="ArrowWide-3"
       refX="0"
       refY="0"
       orient="auto-start-reverse"
       inkscape:stockid="Wide arrow"
       markerWidth="1"
       markerHeight="1"
       viewBox="0 0 1 1"
       inkscape:isstock="true"
       inkscape:collect="always"
       preserveAspectRatio="xMidYMid">
      <path
         style="fill:none;stroke:context-stroke;stroke-width:1;stroke-linecap:butt"
         d="M 3,-3 0,0 3,3"
         transform="rotate(180,0.125,0)"
         sodipodi:nodetypes="ccc"
         id="path1-6" />
    </marker>
    <marker
       style="overflow:visible"
       id="ArrowWide-4-1"
       refX="0"
       refY="0"
       orient="auto-start-reverse"
       inkscape:stockid="Wide arrow"
       markerWidth="1"
       markerHeight="1"
       viewBox="0 0 1 1"
       inkscape:isstock="true"
       inkscape:collect="always"
       preserveAspectRatio="xMidYMid">
      <path
         style="fill:none;stroke:context-stroke;stroke-width:1;stroke-linecap:butt"
         d="M 3,-3 0,0 3,3"
         transform="rotate(180,0.125,0)"
         sodipodi:nodetypes="ccc"
         id="path1-8-5" />
    </marker>
    <marker
       style="overflow:visible"
       id="ArrowWide-3-7"
       refX="0"
       refY="0"
       orient="auto-start-reverse"
       inkscape:stockid="Wide arrow"
       markerWidth="1"
       markerHeight="1"
       viewBox="0 0 1 1"
       inkscape:isstock="true"
       inkscape:collect="always"
       preserveAspectRatio="xMidYMid">
      <path
         style="fill:none;stroke:context-stroke;stroke-width:1;stroke-linecap:butt"
         d="M 3,-3 0,0 3,3"
         transform="rotate(180,0.125,0)"
         sodipodi:nodetypes="ccc"
         id="path1-6-1" />
    </marker>
    <marker
       style="overflow:visible"
       id="ArrowWide-4-1-3"
       refX="0"
       refY="0"
       orient="auto-start-reverse"
       inkscape:stockid="Wide arrow"
       markerWidth="1"
       markerHeight="1"
       viewBox="0 0 1 1"
       inkscape:isstock="true"
       inkscape:collect="always"
       preserveAspectRatio="xMidYMid">
      <path
         style="fill:none;stroke:context-stroke;stroke-width:1;stroke-linecap:butt"
         d="M 3,-3 0,0 3,3"
         transform="rotate(180,0.125,0)"
         sodipodi:nodetypes="ccc"
         id="path1-8-5-1" />
    </marker>
    <marker
       style="overflow:visible"
       id="ArrowWide-4-1-3-8"
       refX="0"
       refY="0"
       orient="auto-start-reverse"
       inkscape:stockid="Wide arrow"
       markerWidth="1"
       markerHeight="1"
       viewBox="0 0 1 1"
       inkscape:isstock="true"
       inkscape:collect="always"
       preserveAspectRatio="xMidYMid">
      <path
         style="fill:none;stroke:context-stroke;stroke-width:1;stroke-linecap:butt"
         d="M 3,-3 0,0 3,3"
         transform="rotate(180,0.125,0)"
         sodipodi:nodetypes="ccc"
         id="path1-8-5-1-6" />
    </marker>
    <marker
       style="overflow:visible"
       id="ArrowWide-3-9"
       refX="0"
       refY="0"
       orient="auto-start-reverse"
       inkscape:stockid="Wide arrow"
       markerWidth="1"
       markerHeight="1"
       viewBox="0 0 1 1"
       inkscape:isstock="true"
       inkscape:collect="always"
       preserveAspectRatio="xMidYMid">
      <path
         style="fill:none;stroke:context-stroke;stroke-width:1;stroke-linecap:butt"
         d="M 3,-3 0,0 3,3"
         transform="rotate(180,0.125,0)"
         sodipodi:nodetypes="ccc"
         id="path1-6-3" />
    </marker>
    <marker
       style="overflow:visible"
       id="ArrowWide-3-76"
       refX="0"
       refY="0"
       orient="auto-start-reverse"
       inkscape:stockid="Wide arrow"
       markerWidth="1"
       markerHeight="1"
       viewBox="0 0 1 1"
       inkscape:isstock="true"
       inkscape:collect="always"
       preserveAspectRatio="xMidYMid">
      <path
         style="fill:none;stroke:context-stroke;stroke-width:1;stroke-linecap:butt"
         d="M 3,-3 0,0 3,3"
         transform="rotate(180,0.125,0)"
         sodipodi:nodetypes="ccc"
         id="path1-6-36" />
    </marker>
    <marker
       style="overflow:visible"
       id="ArrowWide-3-76-7"
       refX="0"
       refY="0"
       orient="auto-start-reverse"
       inkscape:stockid="Wide arrow"
       markerWidth="1"
       markerHeight="1"
       viewBox="0 0 1 1"
       inkscape:isstock="true"
       inkscape:collect="always"
       preserveAspectRatio="xMidYMid">
      <path
         style="fill:none;stroke:context-stroke;stroke-width:1;stroke-linecap:butt"
         d="M 3,-3 0,0 3,3"
         transform="rotate(180,0.125,0)"
         sodipodi:nodetypes="ccc"
         id="path1-6-36-2" />
    </marker>
  </defs>
  <g
     inkscape:label="Layer 1"
     inkscape:groupmode="layer"
     id="layer1">
    <path
       id="boundary2-1"
       style="fill:#000000;fill-opacity:1;stroke-width:5.969;stroke-linejoin:round"
       d="m -217.05812,479.74587 19.19143,17.42709 10.45891,15.82286 2.74752,21.46606 -3.11314,20.06826 -12.83512,33.01258 -31.5075,16.37627 -20.67349,-4.97361 -19.5478,-16.24875 -11.17148,-44.90544 3.47483,-27.54078 14.8162,-21.96704 10.82495,-8.5156 14.34245,-0.99565 z"
       sodipodi:nodetypes="ccccccccccccccc"
       role="boundary" />
    <circle
       style="fill:#ffffff;fill-opacity:0.119048;stroke:#ffffff;stroke-width:1;stroke-linejoin:round;stroke-dasharray:none;stroke-opacity:1"
       id="transporter2-8-9"
       cx="-251.6066"
       cy="563.25739"
       role="transporter"
       r="20" />
    <path
       id="boundary1"
       style="fill:#000000;fill-opacity:1;stroke-width:5.969;stroke-linejoin:round"
       d="M -0.171128,-27.537706 11.075751,-6.5233048 25.793807,0.1454836 27.664052,18.671366 24.174917,42.349103 10.190413,78.3364 l -21.922552,18.36038 -1.733955,22.54884 -23.414596,6.60091 -6.079778,21.32002 -17.487358,15.42342 -20.717385,3.80251 -3.879735,31.57776 -25.229704,13.45715 -35.04451,29.66597 -79.54079,17.05858 -29.13317,54.61924 -47.12882,40.27363 -14.93737,9.40667 -16.24273,-4.38325 -14.44061,-12.65243 -25.35015,-31.5105 -25.23924,-37.8177 -4.82854,-24.08046 5.30998,-17.65498 18.30159,-7.86924 41.28575,-12.26775 56.8721,-0.91323 41.96972,11.56027 33.86246,-1.92731 36.90724,-9.06783 19.8912,-20.07042 3.76994,-16.44804 -3.19974,-17.24269 -7.26957,-18.24292 -6.55267,-18.94818 -4.74559,-16.78237 -5.48457,-18.55737 -3.44845,-10.528981 -14.65646,-4.887137 -11.99357,2.761253 19.93511,31.989565 -26.49472,17.50224 27.96071,10.89473 -12.33639,29.32723 24.14079,-9.74199 -4.25542,24.23556 -9.31401,18.96838 -16.36183,-4.21703 -14.67499,9.03434 -43.69699,-3.53401 14.97154,-32.68247 -37.20761,0.7086 -14.657,-46.48638 -0.91353,-59.874035 40.2507,-47.797863 60.88216,-31.689594 52.92543,11.7929845 8.12528,24.4743415 -4.63115,35.546556 23.7338,30.576686 11.79065,1.493889 9.547006,-7.152157 10.537979,-12.24306 9.82744,-11.517082 1.9937,-21.73079 -5.842465,-19.994665 -35.80215,-10.360914 -14.46082,-21.728763 13.63473,-19.81228 15.868074,-9.823788 27.187465,5.412762 24.367873,-1.033613 21.881516,11.645898 z"
       sodipodi:nodetypes="ccccccccccccccccccccccccccccccccccccccccccccccccccccccccccccccccccccccccccc"
       role="boundary" />
    <circle
       style="fill:#009900;fill-opacity:1;stroke-width:3.77953;stroke-linejoin:round;stroke-dasharray:7.55906, 7.55906"
       id="rover1-5"
       cx="-94.884041"
       cy="-26.769552"
       role="rover"
       r="5" />
    <path
       id="boundary2"
       style="fill:#000000;fill-opacity:1;stroke-width:5.969;stroke-linejoin:round"
       d="m -400.69875,283.14283 14.83752,21.54284 28.4472,40.74143 27.85835,21.52731 5.74923,8.81491 -1.47492,14.62541 -23.11473,43.89288 23.33209,31.28949 38.98762,5.01659 9.97334,3.06999 0.14232,13.5122 -12.5319,17.81349 -5.47304,33.89371 18.17487,51.46421 -2.53728,10.60881 -12.38775,1.33891 -93.00964,-36.2378 -48.42395,-53.36906 -17.57793,-61.88907 -34.24301,-27.29072 -33.64734,47.16535 -37.49813,28.06186 -39.47848,7.77457 -39.54632,-30.14132 7.81835,-40.9004 50.00112,-20.32349 49.52246,-35.58304 47.12411,-87.91452 48.45765,-35.62491 17.35691,-1.063 10.05449,9.1542 z"
       sodipodi:nodetypes="cccccccccccccccccccccccccccccccc"
       role="boundary" />
    <circle
       style="fill:#808080;fill-opacity:1;stroke-width:3.77953;stroke-linejoin:round;stroke-dasharray:7.55906, 7.55906"
       id="rock9-1"
       cx="-497.87216"
       cy="352.50946"
       role="rock"
       r="3.5" />
    <circle
       style="fill:#808080;fill-opacity:1;stroke-width:3.77953;stroke-linejoin:round;stroke-dasharray:7.55906, 7.55906"
       id="rock1"
       cx="-116.08258"
       cy="127.29187"
       role="rock"
       r="3" />
    <circle
       style="fill:#808080;fill-opacity:1;stroke-width:3.77953;stroke-linejoin:round;stroke-dasharray:7.55906, 7.55906"
       id="rock5"
       cx="-353.99963"
       cy="563.13287"
       role="rock"
       r="5" />
    <circle
       style="fill:#808080;fill-opacity:1;stroke-width:3.77953;stroke-linejoin:round;stroke-dasharray:7.55906, 7.55906"
       id="rock5-1"
       cx="-169.90273"
       cy="18.12689"
       role="rock"
       r="5" />
    <circle
       style="fill:#808080;fill-opacity:1;stroke-width:3.77953;stroke-linejoin:round;stroke-dasharray:7.55906, 7.55906"
       id="rock5-7"
       cx="-51.75"
       cy="47"
       role="rock"
       r="5" />
    <circle
       style="fill:#808080;fill-opacity:1;stroke-width:3.77953;stroke-linejoin:round;stroke-dasharray:7.55906, 7.55906"
       id="rock5-7-9"
       cx="-326.27396"
       cy="231.03638"
       role="rock"
       r="5" />
    <circle
       style="fill:#808080;fill-opacity:1;stroke-width:3.77953;stroke-linejoin:round;stroke-dasharray:7.55906, 7.55906"
       id="rock6-0"
       cx="-43"
       cy="43.125"
       role="rock"
       r="2" />
    <circle
       style="fill:#808080;fill-opacity:1;stroke-width:3.77953;stroke-linejoin:round;stroke-dasharray:7.55906, 7.55906"
       id="rock7"
       cx="-69.201195"
       cy="86.119537"
       role="rock"
       r="2" />
    <circle
       style="fill:#808080;fill-opacity:1;stroke-width:3.77953;stroke-linejoin:round;stroke-dasharray:7.55906, 7.55906"
       id="rock8"
       cx="-40.257912"
       cy="51.481163"
       role="rock"
       r="3" />
    <circle
       style="fill:#808080;fill-opacity:1;stroke-width:3.77953;stroke-linejoin:round;stroke-dasharray:7.55906, 7.55906"
       id="rock9"
       cx="-359.0209"
       cy="455.90781"
       role="rock"
       r="3.5" />
    <circle
       style="fill:#808080;fill-opacity:1;stroke-width:3.77953;stroke-linejoin:round;stroke-dasharray:7.55906, 7.55906"
       id="rock10"
       cx="-52.125"
       cy="35.75"
       role="rock"
       r="3.5" />
    <circle
       style="fill:#808080;fill-opacity:1;stroke-width:3.77953;stroke-linejoin:round;stroke-dasharray:7.55906, 7.55906"
       id="circle1"
       cx="-33.805382"
       cy="107.70514"
       role="rock"
       r="2" />
    <circle
       style="fill:#808080;fill-opacity:1;stroke-width:3.77953;stroke-linejoin:round;stroke-dasharray:7.55906, 7.55906"
       id="rock10-9"
       cx="-322.96991"
       cy="294.72818"
       role="rock"
       r="2" />
    <circle
       style="fill:#808080;fill-opacity:1;stroke-width:3.77953;stroke-linejoin:round;stroke-dasharray:7.55906, 7.55906"
       id="rock9-7"
       cx="-481.15622"
       cy="385.09012"
       role="rock"
       r="3.5" />
    <circle
       style="fill:#ffffff;fill-opacity:0.119048;stroke:#ffffff;stroke-width:1;stroke-linejoin:round;stroke-dasharray:none;stroke-opacity:1"
       id="transporter1"
       cx="-366.26315"
       cy="372.74442"
       role="transporter"
       r="20" />
    <circle
       style="fill:#ffffff;fill-opacity:0.119048;stroke:#ffffff;stroke-width:1;stroke-linejoin:round;stroke-dasharray:none;stroke-opacity:1"
       id="transporter2"
       cx="-365.04144"
       cy="269.98889"
       role="transporter"
       r="20" />
    <circle
       style="fill:#ffffff;fill-opacity:0.119048;stroke:#ffffff;stroke-width:1;stroke-linejoin:round;stroke-dasharray:none;stroke-opacity:1"
       id="transporter2-8"
       cx="-312.34314"
       cy="498.35355"
       role="transporter"
       r="20" />
    <circle
       style="fill:#ffffff;fill-opacity:0.119048;stroke:#ffffff;stroke-width:1;stroke-linejoin:round;stroke-dasharray:none;stroke-opacity:1"
       id="transporter2-1"
       cx="-570.80365"
       cy="458.20563"
       role="transporter"
       r="20" />
    <path
       id="door1"
       style="fill:#322000;fill-opacity:1;stroke-width:0.1;stroke-linejoin:round"
       d="m -75.881665,58.483229 18.843479,-6.482216 16.186063,5.567054 10.643395,-1.535403 13.431667,8.442443 2.953088,16.589095 8.7216993,19.337648 -12.3126433,13.09873 -23.955723,-16.16229 -16.401859,1.308384 -7.894605,-18.127233 -13.966938,-4.656026 z"
       sodipodi:nodetypes="ccccccccccccc"
       role="door" />
    <path
       id="door2"
       style="fill:#322000;fill-opacity:1;stroke-width:0.1;stroke-linejoin:round"
       d="m -215.69409,230.66668 0.88072,-6.29872 4.97887,-5.40789 5.82703,-2.28574 3.10142,-3.76566 5.3823,0.23777 5.83414,-0.70658 3.49339,3.93222 5.34731,2.09439 5.68576,4.31252 0.87024,4.77654 1.22944,5.57303 2.06015,6.05354 -0.88627,7.68943 -1.48758,6.77201 -2.81878,1.7354 -2.54138,0.94298 -2.59477,2.71247 -4.43005,2.1037 -4.18933,0.8291 -5.21721,0.0641 -5.33216,0.8822 -5.30454,-0.0383 -2.74263,-2.92678 -1.59732,-2.78064 -3.32659,-1.78203 -4.17261,-3.87522 -1.3736,-7.19628 1.2507,-7.40429 z"
       sodipodi:nodetypes="cccccccccccccccccccccccccccccc"
       role="door" />
    <path
       id="star1"
       style="fill:#ffff00;stroke-width:0.908675;stroke-linejoin:round"
       d="m -6.5066334,36.640975 -3.1129936,-2.050315 -3.067352,2.124457 0.899465,-3.735024 -2.876606,-2.399477 3.668886,-0.258085 1.289516,-3.607415 1.368033,3.575534 3.6735646,0.17001 -2.8233906,2.467863 z"
       role="star"
       sodipodi:nodetypes="ccccccccccc" />
    <path
       id="star2"
       style="fill:#ffff00;stroke-width:0.908675;stroke-linejoin:round"
       d="m -180.74623,193.27376 -3.113,-2.05031 -3.06735,2.12445 0.89946,-3.73502 -2.8766,-2.39948 3.66888,-0.25808 1.28952,-3.60742 1.36804,3.57554 3.67356,0.17001 -2.82339,2.46786 z"
       role="star"
       sodipodi:nodetypes="ccccccccccc" />
    <circle
       style="fill:#009900;fill-opacity:1;stroke-width:3.77953;stroke-linejoin:round;stroke-dasharray:7.55906, 7.55906"
       id="rover1"
       cx="-41.66827"
       cy="-4.504425"
       role="rover"
       r="5" />
    <circle
       style="fill:#0053ff;fill-opacity:1;stroke-width:3.77953;stroke-linejoin:round;stroke-dasharray:7.55906, 7.55906"
       id="player"
       cx="-36.79443"
       cy="24.018797"
       role="player"
       r="5" />
    <circle
       style="fill:#cc0000;fill-opacity:1;stroke-width:3.77953;stroke-linejoin:round;stroke-dasharray:7.55906, 7.55906"
       id="monster1-1"
       cx="-242.50745"
       cy="100.54884"
       role="monster"
       r="10" />
    <circle
       style="fill:#cc0000;fill-opacity:1;stroke-width:3.77953;stroke-linejoin:round;stroke-dasharray:7.55906, 7.55906"
       id="monster1-1-8"
       cx="-301.93933"
       cy="275.24084"
       role="monster"
       r="10" />
    <circle
       style="fill:#00d4ff;fill-opacity:1;stroke-width:3.77953;stroke-linejoin:round;stroke-dasharray:7.55906, 7.55906"
       id="playerBlade1"
       cx="-94.5"
       cy="154.5"
       role="blade"
       r="10"
       align="0" />
    <circle
       style="fill:#00aacc;fill-opacity:1;stroke-width:3.77953;stroke-linejoin:round;stroke-dasharray:7.55906, 7.55906"
       id="playerBlade1-1"
       cx="-434.75"
       cy="395.25"
       role="blade"
       r="10"
       align="0" />
    <circle
       style="fill:#808080;fill-opacity:1;stroke-width:3.77953;stroke-linejoin:round;stroke-dasharray:7.55906, 7.55906"
       id="rock2-7"
       cx="-43.5"
       cy="126.25"
       role="rock"
       r="2" />
    <path
       id="door2-0"
       style="fill:#322000;fill-opacity:1;stroke-width:0.1;stroke-linejoin:round"
       d="m -529.2276,363.34718 63.97945,58.96252 -18.49911,17.5646 -65.16863,-54.30973 z"
       sodipodi:nodetypes="ccccc"
       role="door" />
    <path
       style="fill:none;fill-opacity:0.119048;stroke:#ffffff;stroke-width:1;stroke-linejoin:round;stroke-dasharray:none;stroke-opacity:1;marker-end:url(#ArrowWide-4-1-3-8)"
       d="m -509.13692,404.08296 28.81299,-67.62215"
       id="arrow4-9"
       sodipodi:nodetypes="cc"
       role="arrow" />
    <circle
       style="fill:#00ffc2;fill-opacity:1;stroke-width:3.77953;stroke-linejoin:round;stroke-dasharray:7.55906, 7.55906"
       id="roverBlade1"
       cx="-419.23267"
       cy="369.99896"
       role="blade"
       r="10"
       align="1" />
    <circle
       style="fill:#00b200;fill-opacity:1;stroke-width:3.77953;stroke-linejoin:round;stroke-dasharray:7.55906, 7.55906"
       id="rover1-6"
       cx="-419.75"
       cy="370.5"
       role="rover"
       r="5" />
    <path
       id="star2-0"
       style="fill:#ffff00;stroke-width:0.908675;stroke-linejoin:round"
       d="m -260.00367,535.26469 -3.113,-2.05031 -3.06735,2.12445 0.89946,-3.73502 -2.8766,-2.39948 3.66888,-0.25808 1.28952,-3.60742 1.36804,3.57554 3.67356,0.17001 -2.82339,2.46786 z"
       role="star"
       sodipodi:nodetypes="ccccccccccc" />
    <path
       style="fill:none;fill-opacity:0.119048;stroke:#ffffff;stroke-width:1;stroke-linejoin:round;stroke-dasharray:none;stroke-opacity:1;marker-end:url(#ArrowWide-4-1-3)"
       d="m -200.96267,220.75936 13.65183,33.24717"
       id="arrow4"
       sodipodi:nodetypes="cc"
       role="arrow" />
    <path
       style="fill:none;fill-opacity:0.119048;stroke:#ffffff;stroke-width:1;stroke-linejoin:round;stroke-dasharray:none;stroke-opacity:1;marker-end:url(#ArrowWide-4-1)"
       d="M -12.61731,101.71805 -66.197714,61.74555"
       id="arrow1"
       sodipodi:nodetypes="cc"
       role="arrow" />
    <path
       style="fill:none;fill-opacity:0.119048;stroke:#ffffff;stroke-width:1;stroke-linejoin:round;stroke-dasharray:none;stroke-opacity:1;marker-end:url(#ArrowWide-3-76)"
       d="m -311.39416,498.6684 51.16106,10.01093"
       id="arrow2-5"
       sodipodi:nodetypes="cc"
       role="arrow" />
    <path
       style="fill:none;fill-opacity:0.119048;stroke:#ffffff;stroke-width:1;stroke-linejoin:round;stroke-dasharray:none;stroke-opacity:1;marker-end:url(#ArrowWide-3-76-7)"
       d="m -252.45727,562.9699 -55.793,2.28911"
       id="arrow2-5-0"
       sodipodi:nodetypes="cc"
       role="arrow" />
    <path
       style="fill:none;fill-opacity:0.119048;stroke:#ffffff;stroke-width:1;stroke-linejoin:round;stroke-dasharray:none;stroke-opacity:1;marker-end:url(#ArrowWide-3-7)"
       d="m -359.09683,367.75761 41.09825,-29.44402"
       id="arrow3"
       sodipodi:nodetypes="cc"
       role="arrow" />
    <path
       style="fill:none;fill-opacity:0.119048;stroke:#ffffff;stroke-width:1;stroke-linejoin:round;stroke-dasharray:none;stroke-opacity:1;marker-end:url(#ArrowWide-3)"
       d="m -366.40163,270.6524 -41.88919,31.2787"
       id="arrow2"
       sodipodi:nodetypes="cc"
       role="arrow" />
    <path
       style="fill:none;fill-opacity:0.119048;stroke:#ffffff;stroke-width:1;stroke-linejoin:round;stroke-dasharray:none;stroke-opacity:1;marker-end:url(#ArrowWide-3-9)"
       d="m -574.06173,459.02658 37.26156,-28.85125"
       id="arrow2-4"
       sodipodi:nodetypes="cc"
       role="arrow" />
  </g>
</svg>
