<?xml version="1.0" encoding="UTF-8" standalone="no"?>
<!-- Created with Inkscape (http://www.inkscape.org/) -->

<svg
   width="10"
   height="10"
   viewBox="0 0 10 10"
   version="1.1"
   id="svg1"
   inkscape:version="1.4 (86a8ad7, 2024-10-11)"
   sodipodi:docname="start.svg"
   xmlns:inkscape="http://www.inkscape.org/namespaces/inkscape"
   xmlns:sodipodi="http://sodipodi.sourceforge.net/DTD/sodipodi-0.dtd"
   xmlns="http://www.w3.org/2000/svg"
   xmlns:svg="http://www.w3.org/2000/svg">
  <sodipodi:namedview
     id="namedview1"
     pagecolor="#000000"
     bordercolor="#999999"
     borderopacity="1"
     inkscape:showpageshadow="false"
     inkscape:pageopacity="0"
     inkscape:pagecheckerboard="0"
     inkscape:deskcolor="#000000"
     inkscape:document-units="px"
     inkscape:zoom="5.6568542"
     inkscape:cx="-218.31922"
     inkscape:cy="284.52209"
     inkscape:window-width="1920"
     inkscape:window-height="1009"
     inkscape:window-x="-8"
     inkscape:window-y="-8"
     inkscape:window-maximized="1"
     inkscape:current-layer="layer1"
     showborder="false"
     showgrid="true"
     showguides="false">
    <inkscape:grid
       id="grid1"
       units="px"
       originx="0"
       originy="0"
       spacingx="5"
       spacingy="5"
       empcolor="#0099e5"
       empopacity="0.10196078"
       color="#0099e5"
       opacity="0.10196078"
       empspacing="1"
       enabled="true"
       visible="true" />
  </sodipodi:namedview>
  <defs
     id="defs1">
    <marker
       style="overflow:visible"
       id="ArrowWide-3"
       refX="0"
       refY="0"
       orient="auto-start-reverse"
       inkscape:stockid="Wide arrow"
       markerWidth="1"
       markerHeight="1"
       viewBox="0 0 1 1"
       inkscape:isstock="true"
       inkscape:collect="always"
       preserveAspectRatio="xMidYMid">
      <path
         style="fill:none;stroke:context-stroke;stroke-width:1;stroke-linecap:butt"
         d="M 3,-3 0,0 3,3"
         transform="rotate(180,0.125,0)"
         sodipodi:nodetypes="ccc"
         id="path1-6" />
    </marker>
    <marker
       style="overflow:visible"
       id="ArrowWide-4-1"
       refX="0"
       refY="0"
       orient="auto-start-reverse"
       inkscape:stockid="Wide arrow"
       markerWidth="1"
       markerHeight="1"
       viewBox="0 0 1 1"
       inkscape:isstock="true"
       inkscape:collect="always"
       preserveAspectRatio="xMidYMid">
      <path
         style="fill:none;stroke:context-stroke;stroke-width:1;stroke-linecap:butt"
         d="M 3,-3 0,0 3,3"
         transform="rotate(180,0.125,0)"
         sodipodi:nodetypes="ccc"
         id="path1-8-5" />
    </marker>
    <marker
       style="overflow:visible"
       id="ArrowWide-3-7"
       refX="0"
       refY="0"
       orient="auto-start-reverse"
       inkscape:stockid="Wide arrow"
       markerWidth="1"
       markerHeight="1"
       viewBox="0 0 1 1"
       inkscape:isstock="true"
       inkscape:collect="always"
       preserveAspectRatio="xMidYMid">
      <path
         style="fill:none;stroke:context-stroke;stroke-width:1;stroke-linecap:butt"
         d="M 3,-3 0,0 3,3"
         transform="rotate(180,0.125,0)"
         sodipodi:nodetypes="ccc"
         id="path1-6-1" />
    </marker>
    <marker
       style="overflow:visible"
       id="ArrowWide-4-1-3"
       refX="0"
       refY="0"
       orient="auto-start-reverse"
       inkscape:stockid="Wide arrow"
       markerWidth="1"
       markerHeight="1"
       viewBox="0 0 1 1"
       inkscape:isstock="true"
       inkscape:collect="always"
       preserveAspectRatio="xMidYMid">
      <path
         style="fill:none;stroke:context-stroke;stroke-width:1;stroke-linecap:butt"
         d="M 3,-3 0,0 3,3"
         transform="rotate(180,0.125,0)"
         sodipodi:nodetypes="ccc"
         id="path1-8-5-1" />
    </marker>
  </defs>
  <g
     inkscape:label="Layer 1"
     inkscape:groupmode="layer"
     id="layer1">
    <path
       id="boundary1"
       style="fill:#1a1a1a;fill-opacity:1;stroke-width:5.969;stroke-linejoin:round"
       d="M 89.836755,-76.234405 104.28643,-54.690567 95.74534,-20.823294 70.588674,15.57086 38.888869,40.339494 11.489888,54.720424 -11.021005,73.368886 -41.748643,90.6153 l -12.801975,15.15545 -9.32881,9.20877 -0.26302,20.71647 -5.0333,17.58027 -9.939211,15.94896 -12.183035,19.43131 -14.976656,24.77086 -13.52008,23.48218 -26.30954,22.14874 -17.97597,20.1707 -41.58564,16.89736 -79.54079,17.05858 -29.13317,54.61924 -65.81619,56.2428 -26.93334,-23.59818 -25.35015,-31.5105 -25.23924,-37.8177 -8.33106,-41.54794 68.39984,-20.32449 56.8721,-0.91323 41.96972,11.56027 33.98746,-9.19445 36.78224,-1.80069 28.35316,-10.56813 24.77372,-22.13943 16.72122,-19.90532 24.28932,-32.51137 -5.80014,-21.33804 -29.38116,35.5678 -34.50145,7.98651 -27.56973,3.89647 -18.78628,2.71263 -22.79899,1.60245 -19.0635,-0.90303 -12.85161,-3.76678 -18.38402,-5.07846 -16.34261,-12.74569 -18.54548,-14.70831 -18.90422,-22.25542 -50.60326,-23.3015 -37.039,-48.828152 -25.1635,-18.70015 -23.67135,14.64694 -13.67286,21.619542 28.62064,151.57175 -15.88974,27.76136 -43.42497,22.56231 -13.87855,0.19692 -9.48162,-6.50348 -3.5798,-10.20259 5.0774,-13.80551 38.32671,-25.62299 -28.06806,-165.616032 29.07956,-39.11977 45.27599,-25.062952 21.15946,5.449805 60.44364,22.014111 49.81635,32.999763 54.20028,52.741745 28.7053,21.85397 34.2379,2.15027 30.08745,-1.30333 23.33369,-16.50563 10.65583,-16.66728 0.53958,-21.69562 1.07649,-34.922239 -0.13871,-29.073354 4.99407,-35.3055777 8.93672,-32.2169513 13.87042,-51.524562 25.56831,-43.461776 43.831361,-45.36327 39.56376,-46.92243 73.832214,-1.13818 58.747115,13.32645 34.83458,25.76309 17.60685,32.0064 14.42068,23.43411 4.37464,21.55872 -15.36569,19.959898 -24.89007,2.9165 -21.418479,-11.16248 -22.080253,-29.703768 -20.154812,-23.6804 -20.727546,-13.51301 -38.0115999,-8.94662 -39.2296921,25.35785 -30.667679,60.211043 -7.292858,37.345615 -4.42381,23.443739 -2.000355,21.7212939 -2.095666,18.8169291 -4.759,22.800481 -1.30003,17.20159 -1.71473,18.5481 -0.62154,11.798512 7.548006,8.91851 8.839898,-2.202409 9.123766,-9.414633 5.938352,-16.46683 16.501406,-21.174266 0.526767,-22.302159 2.051313,-17.8756854 -1.267085,-18.7507616 -0.480561,-14.696701 5.963807,-42.320646 25.301984,-49.157212 39.484475,-15.45087 32.888689,18.13796 17.638875,24.020266 z"
       sodipodi:nodetypes="ccccccccccccccccccccccccccccccccccccccccccccccccccccccccccccccccccccccccccccccccccccccccccccccccccccccccccccccccccccccc"
       role="boundary" />
    <path
       id="boundary2"
       style="fill:#1a1a1a;fill-opacity:1;stroke-width:5.969;stroke-linejoin:round"
       d="m -465.75257,335.82229 14.83752,21.54284 28.4472,40.74143 39.67008,30.65472 -20.55877,46.57943 -57.87906,51.8141 -82.54505,49.70014 -80.01642,15.81744 -75.04702,-37.56858 -14.13211,-48.41697 -7.73799,-40.19329 1.49859,-66.21689 67.27119,-46.29624 75.04264,-29.45259 103.92542,-32.95141 z"
       sodipodi:nodetypes="cccccccccccccccc"
       role="boundary" />
    <circle
       style="fill:#808080;fill-opacity:1;stroke-width:3.77953;stroke-linejoin:round;stroke-dasharray:7.55906, 7.55906"
       id="rock1"
       cx="-75.001999"
       cy="107.02061"
       role="rock"
       r="3" />
    <circle
       style="fill:#808080;fill-opacity:1;stroke-width:3.77953;stroke-linejoin:round;stroke-dasharray:7.55906, 7.55906"
       id="rock2"
       cx="-74.339851"
       cy="114.1259"
       role="rock"
       r="2" />
    <circle
       style="fill:#808080;fill-opacity:1;stroke-width:3.77953;stroke-linejoin:round;stroke-dasharray:7.55906, 7.55906"
       id="rock3"
       cx="-69.500008"
       cy="107.37501"
       role="rock"
       r="2" />
    <circle
       style="fill:#808080;fill-opacity:1;stroke-width:3.77953;stroke-linejoin:round;stroke-dasharray:7.55906, 7.55906"
       id="rock4"
       cx="-68.875008"
       cy="112.625"
       role="rock"
       r="3" />
    <circle
       style="fill:#808080;fill-opacity:1;stroke-width:3.77953;stroke-linejoin:round;stroke-dasharray:7.55906, 7.55906"
       id="rock5"
       cx="-86.510406"
       cy="101.57171"
       role="rock"
       r="5" />
    <circle
       style="fill:#808080;fill-opacity:1;stroke-width:3.77953;stroke-linejoin:round;stroke-dasharray:7.55906, 7.55906"
       id="rock6"
       cx="-71.051414"
       cy="118.97981"
       role="rock"
       r="2" />
    <circle
       style="fill:#808080;fill-opacity:1;stroke-width:3.77953;stroke-linejoin:round;stroke-dasharray:7.55906, 7.55906"
       id="rock7"
       cx="-79.012299"
       cy="102.55977"
       role="rock"
       r="2" />
    <circle
       style="fill:#808080;fill-opacity:1;stroke-width:3.77953;stroke-linejoin:round;stroke-dasharray:7.55906, 7.55906"
       id="rock8"
       cx="-73.337677"
       cy="100.06345"
       role="rock"
       r="3" />
    <circle
       style="fill:#808080;fill-opacity:1;stroke-width:3.77953;stroke-linejoin:round;stroke-dasharray:7.55906, 7.55906"
       id="rock9"
       cx="-81.833626"
       cy="110.33821"
       role="rock"
       r="3.5" />
    <circle
       style="fill:#808080;fill-opacity:1;stroke-width:3.77953;stroke-linejoin:round;stroke-dasharray:7.55906, 7.55906"
       id="rock10"
       cx="-65.184509"
       cy="108.31041"
       role="rock"
       r="2" />
    <circle
       style="fill:#ffffff;fill-opacity:0.119048;stroke:#ffffff;stroke-width:1;stroke-linejoin:round;stroke-dasharray:none;stroke-opacity:1"
       id="transporter1"
       cx="-441.95554"
       cy="415.3302"
       role="transporter"
       r="20" />
    <circle
       style="fill:#ffffff;fill-opacity:0.119048;stroke:#ffffff;stroke-width:1;stroke-linejoin:round;stroke-dasharray:none;stroke-opacity:1"
       id="transporter2"
       cx="-430.62039"
       cy="324.3399"
       role="transporter"
       r="20" />
    <path
       id="door1"
       style="fill:#322000;fill-opacity:1;stroke-width:0.1;stroke-linejoin:round"
       d="m -70.931917,64.493637 8.747284,-10.364576 15.046976,-0.96848 12.332735,5.346957 8.027861,7.467569 2.578088,12.714095 -3.620184,12.670388 -10.97076,7.140989 -8.080723,2.837711 -10.901859,-2.691616 -9.894605,-10.127233 -2.77455,-11.595366 z"
       sodipodi:nodetypes="ccccccccccccc"
       role="door" />
    <path
       id="door2"
       style="fill:#322000;fill-opacity:1;stroke-width:0.1;stroke-linejoin:round"
       d="m -253.19409,278.16668 0.88072,-6.29872 4.97887,-5.40789 5.82703,-2.28574 3.10142,-3.76566 5.3823,0.23777 5.83414,-0.70658 3.49339,3.93222 5.34731,2.09439 5.68576,4.31252 0.87024,4.77654 1.22944,5.57303 2.06015,6.05354 -0.88627,7.68943 -1.48758,6.77201 -2.81878,1.7354 -2.54138,0.94298 -2.59477,2.71247 -4.43005,2.1037 -4.18933,0.8291 -5.21721,0.0641 -5.33216,0.8822 -5.30454,-0.0383 -2.74263,-2.92678 -1.59732,-2.78064 -3.32659,-1.78203 -4.17261,-3.87522 -1.3736,-7.19628 1.2507,-7.40429 z"
       sodipodi:nodetypes="cccccccccccccccccccccccccccccc"
       role="door" />
    <path
       style="fill:none;fill-opacity:0.119048;stroke:#ffffff;stroke-width:1;stroke-linejoin:round;stroke-dasharray:none;stroke-opacity:1;marker-end:url(#ArrowWide-4-1)"
       d="m -64.617311,63.718052 30.919598,27.777495"
       id="arrow1"
       sodipodi:nodetypes="cc"
       role="arrow" />
    <path
       style="fill:none;fill-opacity:0.119048;stroke:#ffffff;stroke-width:1;stroke-linejoin:round;stroke-dasharray:none;stroke-opacity:1;marker-end:url(#ArrowWide-3)"
       d="m -429.40163,325.1524 -41.88919,31.2787"
       id="arrow2"
       sodipodi:nodetypes="cc"
       role="arrow" />
    <path
       style="fill:none;fill-opacity:0.119048;stroke:#ffffff;stroke-width:1;stroke-linejoin:round;stroke-dasharray:none;stroke-opacity:1;marker-end:url(#ArrowWide-3-7)"
       d="m -445.08732,416.40406 37.36081,-38.7213"
       id="arrow3"
       sodipodi:nodetypes="cc"
       role="arrow" />
    <path
       style="fill:none;fill-opacity:0.119048;stroke:#ffffff;stroke-width:1;stroke-linejoin:round;stroke-dasharray:none;stroke-opacity:1;marker-end:url(#ArrowWide-4-1-3)"
       d="m -229.82053,302.17016 -2.84476,-34.09435"
       id="arrow4"
       sodipodi:nodetypes="cc"
       role="arrow" />
    <path
       id="star1"
       style="fill:#ffff00;stroke-width:0.908675;stroke-linejoin:round"
       d="m 28.243367,-9.8590262 -3.112994,-2.0503148 -3.067352,2.1244568 0.899465,-3.7350238 -2.876606,-2.399477 3.668886,-0.258085 1.289516,-3.607415 1.368033,3.575534 3.673565,0.17001 -2.823391,2.467863 z"
       role="star"
       sodipodi:nodetypes="ccccccccccc" />
    <path
       id="star2"
       style="fill:#ffff00;stroke-width:0.908675;stroke-linejoin:round"
       d="m -548.99928,280.3565 -3.113,-2.05031 -3.06735,2.12445 0.89946,-3.73502 -2.8766,-2.39948 3.66888,-0.25808 1.28952,-3.60742 1.36804,3.57554 3.67356,0.17001 -2.82339,2.46786 z"
       role="star"
       sodipodi:nodetypes="ccccccccccc" />
    <circle
       style="fill:#00b200;fill-opacity:1;stroke-width:3.77953;stroke-linejoin:round;stroke-dasharray:7.55906, 7.55906"
       id="rover1"
       cx="4.5878263"
       cy="27.757137"
       role="rover"
       r="5" />
    <circle
       style="fill:#00b200;fill-opacity:1;stroke-width:3.77953;stroke-linejoin:round;stroke-dasharray:7.55906, 7.55906"
       id="rover2"
       cx="82.754395"
       cy="-50.818325"
       role="rover"
       r="5" />
    <circle
       style="fill:#cc0000;fill-opacity:1;stroke-width:3.77953;stroke-linejoin:round;stroke-dasharray:7.55906, 7.55906"
       id="monster1"
       cx="-521.16748"
       cy="244.13205"
       role="monster"
       r="10" />
    <circle
       style="fill:#0053ff;fill-opacity:1;stroke-width:3.77953;stroke-linejoin:round;stroke-dasharray:7.55906, 7.55906"
       id="player"
       cx="50.205566"
       cy="-54.481194"
       role="player"
       r="5" />
    <circle
       style="fill:#cc0000;fill-opacity:1;stroke-width:3.77953;stroke-linejoin:round;stroke-dasharray:7.55906, 7.55906"
       id="monster1-1"
       cx="116.11092"
       cy="-104.93414"
       role="monster"
       r="10" />
  </g>
</svg>
